<svg xmlns="http://www.w3.org/2000/svg" viewBox="0 0 1200 630">
  <defs>
    <linearGradient id="g" x1="0" y1="0" x2="1" y2="1">
      <stop offset="0" stop-color="#fff5f5"/>
      <stop offset="1" stop-color="#ffd9d9"/>
    </linearGradient>
  </defs>
  <rect width="1200" height="630" fill="url(#g)"/>
  <g transform="translate(90 170) scale(4.5)">
    <path fill="#DC1414" d="M32 19.5c-3.6-3.4-9.4-4.3-13.6-.6-5.6 4.9-5.2 15.4.4 23.7 3.1 4.6 6.4 8.4 9.8 8.4 1.6 0 2.4-1 3.4-1s1.8 1 3.4 1c3.4 0 6.7-3.8 9.8-8.4 5.6-8.3 6-18.8.4-23.7-4.2-3.7-10-2.8-13.6.6z"/>
    <path fill="#1d8a3a" d="M33 17c.2-5 3.4-8.6 8.5-9.5-.3 5-3.5 8.7-8.5 9.5z"/>
  </g>
  <text x="420" y="290" font-family="Arial, sans-serif" font-size="72" font-weight="700" fill="#16161a">Apple production</text>
  <text x="420" y="370" font-family="Arial, sans-serif" font-size="40" fill="#3a3a42">Ремонт iPhone и другой техники</text>
  <text x="420" y="430" font-family="Arial, sans-serif" font-size="40" fill="#DC1414">Казань, Декабристов 178а</text>
</svg>
